<mxfile host="65bd71144e">
    <diagram id="kw-vs-A2XuLvxrp7swHm" name="Page-1">
        <mxGraphModel dx="448" dy="560" grid="1" gridSize="8" guides="1" tooltips="1" connect="1" arrows="1" fold="1" page="1" pageScale="1" pageWidth="1169" pageHeight="827" background="#ffffff" math="0" shadow="0">
            <root>
                <MiscDiagram modelType="MiscDiagram" lastModifiedUserId="dbush@ibm.com" description="" lastModified="2022-01-26T00:19:11Z" _id="miscdiagram_31tVUSq2uvK" label="DR with PV Duplication" id="0">
                    <mxCell/>
                </MiscDiagram>
                <mxCell id="1" parent="0"/>
                <mxCell id="miscdiagram_31tVUSq2uvK_23dySapWm3wC" value="Enterprise Load Balancers" style="aspect=fixed;perimeter=ellipsePerimeter;html=1;align=center;shadow=0;dashed=0;fontColor=#4277BB;labelBackgroundColor=#ffffff;fontSize=12;spacingTop=3;image;image=data:image/svg+xml,PHN2ZyB4bWxucz0iaHR0cDovL3d3dy53My5vcmcvMjAwMC9zdmciIHdpZHRoPSIxMDAuMDMyIiBoZWlnaHQ9IjEwMC4wMzIiIHZpZXdCb3g9IjAgMCA3NSA3NSIgZmlsbD0ibm9uZSIgZmlsbC1ydWxlPSJldmVub2RkIiBvdmVyZmxvdz0idmlzaWJsZSIgc3Ryb2tlLWxpbmVjYXA9InNxdWFyZSIgc3Ryb2tlLW1pdGVybGltaXQ9IjMiIGNvbG9yLWludGVycG9sYXRpb24tZmlsdGVycz0ic1JHQiI+PHN0eWxlPjwhW0NEQVRBWy5Ce2NvbG9yLWludGVycG9sYXRpb24tZmlsdGVyczpzUkdCfV1dPjwvc3R5bGU+PGNpcmNsZSByPSIzNy41IiBjeD0iMzcuNSIgY3k9IjM3LjUiIGZpbGw9IiM4ZGM1M2YiIGNsYXNzPSJCIi8+PHBhdGggZD0iTTUzLjE4NiA1My41NjJoOS4xMDd2Ny41MTZoLTkuMTA3em0tMjAuMjQgMGg5LjEwN3Y3LjUxNmgtOS4xMDd6bS0yMC4yNCAwaDkuMTA3djcuNTE2aC05LjEwN3pNMjcuNDYyIDcuMDRoMjAuMDc2djguODdIMjcuNDYyem04LjE2MiAxMS40ODN2Ny40OWgtMjAuMDhWNDkuMDNoMy43NVYyOS43NjNoMTYuMzN2MTkuMjUyaDMuNzVWMjkuNzYzaDE2LjMzVjQ5LjA0aDMuNzVWMjYuMDEzaC0yMC4wOHYtNy40OXoiIGZpbGw9IiNmZmYiIHBhaW50LW9yZGVyPSJub3JtYWwiIGNsYXNzPSJCIi8+PC9zdmc+;verticalAlign=top;" parent="1" vertex="1">
                    <mxGeometry x="520" y="16" width="60" height="60" as="geometry"/>
                </mxCell>
                <UserObject placeholders="1" label="Data Center (Active)" Icon-Name="data--center" id="miscdiagram_31tVUSq2uvK_33dySapWsPb4">
                    <mxCell style="shape=mxgraph.ibm2mondrian.base;shapeType=pg;shapeLayout=expanded;colorFamily=blue;colorBackground=noColor:noColor;html=1;whiteSpace=wrap;metaEdit=1;strokeWidth=1;collapsible=0;recursiveResize=0;expand=0;fontFamily=IBM Plex Sans;fontColor=#000000;fontSize=14;image=;verticalAlign=top;align=left;spacing=0;spacingLeft=12;spacingRight=16;spacingTop=0;spacingBottom=0;container=1" parent="1" vertex="1">
                        <mxGeometry x="12" y="104" width="492" height="688" as="geometry"/>
                    </mxCell>
                </UserObject>
                <UserObject placeholders="1" label="OpenShift Cluster 1" Icon-Name="logo--openshift" id="miscdiagram_31tVUSq2uvK_43dySapW9ELF">
                    <mxCell style="shape=mxgraph.ibm2mondrian.base;shapeType=pg;shapeLayout=expanded;colorFamily=blue;colorBackground=noColor:noColor;html=1;whiteSpace=wrap;metaEdit=1;strokeWidth=1;collapsible=0;recursiveResize=0;expand=0;fontFamily=IBM Plex Sans;fontColor=#000000;fontSize=14;image=;verticalAlign=top;align=left;spacing=0;spacingLeft=12;spacingRight=16;spacingTop=0;spacingBottom=0;container=1" parent="miscdiagram_31tVUSq2uvK_33dySapWsPb4" vertex="1">
                        <mxGeometry x="10" y="56" width="454" height="608" as="geometry"/>
                    </mxCell>
                </UserObject>
                <UserObject placeholders="1" label="Router" Icon-Name="router" id="miscdiagram_31tVUSq2uvK_53dySapWHrej">
                    <mxCell style="shape=mxgraph.ibm2mondrian.base;shapeType=ln;shapeLayout=collapsed;colorFamily=blue;colorBackground=noColor:noColor;html=1;whiteSpace=wrap;metaEdit=1;strokeWidth=1;collapsible=0;recursiveResize=0;expand=0;fontFamily=IBM Plex Sans;fontColor=#000000;fontSize=14;image=;verticalAlign=top;align=center;spacing=0;spacingLeft=0;spacingRight=0;spacingTop=0;spacingBottom=0;verticalLabelPosition=bottom;labelPosition=center;positionText=bottom;container=1" parent="miscdiagram_31tVUSq2uvK_43dySapW9ELF" vertex="1">
                        <mxGeometry x="198" y="-23" width="48" height="48" as="geometry"/>
                    </mxCell>
                </UserObject>
                <UserObject placeholders="1" label="Node 1" Icon-Name="cloud" id="miscdiagram_31tVUSq2uvK_63dySapWsJ34">
                    <mxCell style="shape=mxgraph.ibm2mondrian.base;shapeType=lg;shapeLayout=expanded;colorFamily=blue;colorBackground=noColor:noColor;html=1;whiteSpace=wrap;metaEdit=1;strokeWidth=1;collapsible=0;recursiveResize=0;expand=0;fontFamily=IBM Plex Sans;fontColor=#000000;fontSize=14;image=;verticalAlign=top;align=left;spacing=0;spacingLeft=12;spacingRight=16;spacingTop=0;spacingBottom=0;container=1" parent="miscdiagram_31tVUSq2uvK_43dySapW9ELF" vertex="1">
                        <mxGeometry x="6" y="56" width="362" height="136" as="geometry"/>
                    </mxCell>
                </UserObject>
                <UserObject placeholders="1" label="BAW" Icon-Name="cube" id="miscdiagram_31tVUSq2uvK_73dySapWYCO8">
                    <mxCell style="shape=mxgraph.ibm2mondrian.base;shapeType=lg;shapeLayout=expanded;colorFamily=green;colorBackground=noColor:noColor;html=1;whiteSpace=wrap;metaEdit=1;strokeWidth=1;collapsible=0;recursiveResize=0;expand=0;fontFamily=IBM Plex Sans;fontColor=#000000;fontSize=14;image=;verticalAlign=middle;align=left;spacing=0;spacingLeft=12;spacingRight=16;spacingTop=0;spacingBottom=0;container=1" parent="miscdiagram_31tVUSq2uvK_63dySapWsJ34" vertex="1">
                        <mxGeometry x="24" y="52" width="144" height="68" as="geometry"/>
                    </mxCell>
                </UserObject>
                <UserObject placeholders="1" label="DB" Icon-Name="cube" _id="userobject_31WvkrI6wx4" id="miscdiagram_31tVUSq2uvK_83dySapW2YRO">
                    <mxCell style="shape=mxgraph.ibm2mondrian.base;shapeType=lg;shapeLayout=expanded;colorFamily=green;colorBackground=noColor:noColor;html=1;whiteSpace=wrap;metaEdit=1;strokeWidth=1;collapsible=0;recursiveResize=0;expand=0;fontFamily=IBM Plex Sans;fontColor=#000000;fontSize=14;image=;verticalAlign=middle;align=left;spacing=0;spacingLeft=12;spacingRight=16;spacingTop=0;spacingBottom=0;container=1;labelBackgroundColor=none;" parent="miscdiagram_31tVUSq2uvK_63dySapWsJ34" vertex="1">
                        <mxGeometry x="192" y="52" width="144" height="68" as="geometry"/>
                    </mxCell>
                </UserObject>
                <UserObject placeholders="1" label="Node 2" Icon-Name="cloud" _id="userobject_31WyEjwNlAQ" id="miscdiagram_31tVUSq2uvK_93dySapWzhES">
                    <mxCell style="shape=mxgraph.ibm2mondrian.base;shapeType=lg;shapeLayout=expanded;colorFamily=blue;colorBackground=noColor:noColor;html=1;whiteSpace=wrap;metaEdit=1;strokeWidth=1;collapsible=0;recursiveResize=0;expand=0;fontFamily=IBM Plex Sans;fontColor=#000000;fontSize=14;image=;verticalAlign=top;align=left;spacing=0;spacingLeft=12;spacingRight=16;spacingTop=0;spacingBottom=0;container=1" parent="miscdiagram_31tVUSq2uvK_43dySapW9ELF" vertex="1">
                        <mxGeometry x="6" y="200" width="362" height="136" as="geometry"/>
                    </mxCell>
                </UserObject>
                <UserObject placeholders="1" label="BAW" Icon-Name="cube" _id="userobject_31WyEjwGBlt" id="miscdiagram_31tVUSq2uvK_103dySapWo6Ya">
                    <mxCell style="shape=mxgraph.ibm2mondrian.base;shapeType=lg;shapeLayout=expanded;colorFamily=green;colorBackground=noColor:noColor;html=1;whiteSpace=wrap;metaEdit=1;strokeWidth=1;collapsible=0;recursiveResize=0;expand=0;fontFamily=IBM Plex Sans;fontColor=#000000;fontSize=14;image=;verticalAlign=middle;align=left;spacing=0;spacingLeft=12;spacingRight=16;spacingTop=0;spacingBottom=0;container=1" parent="miscdiagram_31tVUSq2uvK_93dySapWzhES" vertex="1">
                        <mxGeometry x="24" y="52" width="144" height="68" as="geometry"/>
                    </mxCell>
                </UserObject>
                <UserObject placeholders="1" label="DB" Icon-Name="cube" _id="userobject_31WyEjwEd7i" id="miscdiagram_31tVUSq2uvK_113dySapWb2ZW">
                    <mxCell style="shape=mxgraph.ibm2mondrian.base;shapeType=lg;shapeLayout=expanded;colorFamily=green;colorBackground=noColor:noColor;html=1;whiteSpace=wrap;metaEdit=1;strokeWidth=1;collapsible=0;recursiveResize=0;expand=0;fontFamily=IBM Plex Sans;fontColor=#000000;fontSize=14;image=;verticalAlign=middle;align=left;spacing=0;spacingLeft=12;spacingRight=16;spacingTop=0;spacingBottom=0;container=1" parent="miscdiagram_31tVUSq2uvK_93dySapWzhES" vertex="1">
                        <mxGeometry x="192" y="52" width="144" height="68" as="geometry"/>
                    </mxCell>
                </UserObject>
                <UserObject placeholders="1" label="Node 3" Icon-Name="cloud" _id="userobject_31WyInoNcXq" id="miscdiagram_31tVUSq2uvK_123dySapWmLpO">
                    <mxCell style="shape=mxgraph.ibm2mondrian.base;shapeType=lg;shapeLayout=expanded;colorFamily=blue;colorBackground=noColor:noColor;html=1;whiteSpace=wrap;metaEdit=1;strokeWidth=1;collapsible=0;recursiveResize=0;expand=0;fontFamily=IBM Plex Sans;fontColor=#000000;fontSize=14;image=;verticalAlign=top;align=left;spacing=0;spacingLeft=12;spacingRight=16;spacingTop=0;spacingBottom=0;container=1" parent="miscdiagram_31tVUSq2uvK_43dySapW9ELF" vertex="1">
                        <mxGeometry x="6" y="352" width="362" height="136" as="geometry"/>
                    </mxCell>
                </UserObject>
                <UserObject placeholders="1" label="BAW" Icon-Name="cube" _id="userobject_31WyInoa5iS" id="miscdiagram_31tVUSq2uvK_133dySapWs07a">
                    <mxCell style="shape=mxgraph.ibm2mondrian.base;shapeType=lg;shapeLayout=expanded;colorFamily=green;colorBackground=noColor:noColor;html=1;whiteSpace=wrap;metaEdit=1;strokeWidth=1;collapsible=0;recursiveResize=0;expand=0;fontFamily=IBM Plex Sans;fontColor=#000000;fontSize=14;image=;verticalAlign=middle;align=left;spacing=0;spacingLeft=12;spacingRight=16;spacingTop=0;spacingBottom=0;container=1" parent="miscdiagram_31tVUSq2uvK_123dySapWmLpO" vertex="1">
                        <mxGeometry x="24" y="52" width="144" height="68" as="geometry"/>
                    </mxCell>
                </UserObject>
                <UserObject placeholders="1" label="DB" Icon-Name="cube" _id="userobject_31WyInoBDRH" id="miscdiagram_31tVUSq2uvK_143dySapWsJD8">
                    <mxCell style="shape=mxgraph.ibm2mondrian.base;shapeType=lg;shapeLayout=expanded;colorFamily=green;colorBackground=noColor:noColor;html=1;whiteSpace=wrap;metaEdit=1;strokeWidth=1;collapsible=0;recursiveResize=0;expand=0;fontFamily=IBM Plex Sans;fontColor=#000000;fontSize=14;image=;verticalAlign=middle;align=left;spacing=0;spacingLeft=12;spacingRight=16;spacingTop=0;spacingBottom=0;container=1" parent="miscdiagram_31tVUSq2uvK_123dySapWmLpO" vertex="1">
                        <mxGeometry x="192" y="52" width="144" height="68" as="geometry"/>
                    </mxCell>
                </UserObject>
                <mxCell id="miscdiagram_31tVUSq2uvK_153dySapWJMnb" value="Persistent Volume" style="shape=cylinder;whiteSpace=wrap;html=1;boundedLbl=1;backgroundOutline=1;" parent="miscdiagram_31tVUSq2uvK_43dySapW9ELF" vertex="1">
                    <mxGeometry x="368" y="504" width="70" height="90" as="geometry"/>
                </mxCell>
                <mxCell id="miscdiagram_31tVUSq2uvK_163dySapWwdjJ" value="" style="edgeStyle=elbowEdgeStyle;elbow=vertical;endArrow=classic;html=1;jumpStyle=arc;jumpSize=8;rounded=1;" parent="miscdiagram_31tVUSq2uvK_43dySapW9ELF" source="miscdiagram_31tVUSq2uvK_63dySapWsJ34" target="miscdiagram_31tVUSq2uvK_153dySapWJMnb" edge="1">
                    <mxGeometry width="50" height="50" relative="1" as="geometry">
                        <mxPoint x="346" y="130" as="sourcePoint"/>
                        <mxPoint x="396" y="80" as="targetPoint"/>
                        <Array as="points">
                            <mxPoint x="403" y="124"/>
                        </Array>
                    </mxGeometry>
                </mxCell>
                <mxCell id="miscdiagram_31tVUSq2uvK_173dySapWhJzM" value="" style="edgeStyle=segmentEdgeStyle;endArrow=classic;html=1;jumpStyle=arc;jumpSize=8;rounded=1;exitX=1;exitY=0.559;exitPerimeter=0;entryX=0.5;entryY=0;" parent="miscdiagram_31tVUSq2uvK_43dySapW9ELF" source="miscdiagram_31tVUSq2uvK_93dySapWzhES" target="miscdiagram_31tVUSq2uvK_153dySapWJMnb" edge="1">
                    <mxGeometry width="50" height="50" relative="1" as="geometry">
                        <mxPoint x="226" y="570" as="sourcePoint"/>
                        <mxPoint x="276" y="520" as="targetPoint"/>
                        <Array as="points">
                            <mxPoint x="403" y="276"/>
                        </Array>
                    </mxGeometry>
                </mxCell>
                <mxCell id="miscdiagram_31tVUSq2uvK_183dySapWp8FK" value="" style="edgeStyle=segmentEdgeStyle;endArrow=classic;html=1;jumpStyle=arc;jumpSize=8;rounded=1;entryX=0.5;entryY=0;exitX=1.003;exitY=0.515;exitPerimeter=0;" parent="miscdiagram_31tVUSq2uvK_43dySapW9ELF" source="miscdiagram_31tVUSq2uvK_123dySapWmLpO" target="miscdiagram_31tVUSq2uvK_153dySapWJMnb" edge="1">
                    <mxGeometry width="50" height="50" relative="1" as="geometry">
                        <mxPoint x="266" y="578" as="sourcePoint"/>
                        <mxPoint x="316" y="528" as="targetPoint"/>
                        <Array as="points">
                            <mxPoint x="403" y="422"/>
                        </Array>
                    </mxGeometry>
                </mxCell>
                <UserObject placeholders="1" label="Data Center (Passive)" Icon-Name="data--center" _id="userobject_31WB8sHgf1F" id="miscdiagram_31tVUSq2uvK_193dySapW79a2">
                    <mxCell style="shape=mxgraph.ibm2mondrian.base;shapeType=pg;shapeLayout=expanded;colorFamily=blue;colorBackground=noColor:noColor;html=1;whiteSpace=wrap;metaEdit=1;strokeWidth=1;collapsible=0;recursiveResize=0;expand=0;fontFamily=IBM Plex Sans;fontColor=#000000;fontSize=14;image=;verticalAlign=top;align=left;spacing=0;spacingLeft=12;spacingRight=16;spacingTop=0;spacingBottom=0;container=1" parent="1" vertex="1">
                        <mxGeometry x="608" y="102" width="492" height="688" as="geometry"/>
                    </mxCell>
                </UserObject>
                <UserObject placeholders="1" label="OpenShift Cluster 2" Icon-Name="logo--openshift" _id="userobject_31WB8sI4A6U" id="miscdiagram_31tVUSq2uvK_203dySapWXGeq">
                    <mxCell style="shape=mxgraph.ibm2mondrian.base;shapeType=pg;shapeLayout=expanded;colorFamily=blue;colorBackground=noColor:noColor;html=1;whiteSpace=wrap;metaEdit=1;strokeWidth=1;collapsible=0;recursiveResize=0;expand=0;fontFamily=IBM Plex Sans;fontColor=#000000;fontSize=14;image=;verticalAlign=top;align=left;spacing=0;spacingLeft=12;spacingRight=16;spacingTop=0;spacingBottom=0;container=1;labelBackgroundColor=none;textOpacity=50;" parent="miscdiagram_31tVUSq2uvK_193dySapW79a2" vertex="1">
                        <mxGeometry x="10" y="56" width="454" height="608" as="geometry"/>
                    </mxCell>
                </UserObject>
                <UserObject placeholders="1" label="Router" Icon-Name="router" id="miscdiagram_31tVUSq2uvK_213dySapWccJe">
                    <mxCell style="shape=mxgraph.ibm2mondrian.base;shapeType=ln;shapeLayout=collapsed;colorFamily=blue;colorBackground=noColor:noColor;html=1;whiteSpace=wrap;metaEdit=1;strokeWidth=1;collapsible=0;recursiveResize=0;expand=0;fontFamily=IBM Plex Sans;fontColor=#000000;fontSize=14;image=;verticalAlign=top;align=center;spacing=0;spacingLeft=0;spacingRight=0;spacingTop=0;spacingBottom=0;verticalLabelPosition=bottom;labelPosition=center;positionText=bottom;container=1" parent="miscdiagram_31tVUSq2uvK_203dySapWXGeq" vertex="1">
                        <mxGeometry x="198" y="-23" width="48" height="48" as="geometry"/>
                    </mxCell>
                </UserObject>
                <UserObject placeholders="1" label="Node 1" Icon-Name="cloud" id="miscdiagram_31tVUSq2uvK_223dySapWgbaY">
                    <mxCell style="shape=mxgraph.ibm2mondrian.base;shapeType=lg;shapeLayout=expanded;colorFamily=blue;colorBackground=noColor:noColor;html=1;whiteSpace=wrap;metaEdit=1;strokeWidth=1;collapsible=0;recursiveResize=0;expand=0;fontFamily=IBM Plex Sans;fontColor=#000000;fontSize=14;image=;verticalAlign=top;align=left;spacing=0;spacingLeft=12;spacingRight=16;spacingTop=0;spacingBottom=0;container=1" parent="miscdiagram_31tVUSq2uvK_203dySapWXGeq" vertex="1">
                        <mxGeometry x="6" y="56" width="362" height="136" as="geometry"/>
                    </mxCell>
                </UserObject>
                <UserObject placeholders="1" label="BAW (Inactive)" Icon-Name="cube" id="miscdiagram_31tVUSq2uvK_233dySapWRkyX">
                    <mxCell style="shape=mxgraph.ibm2mondrian.base;shapeType=lg;shapeLayout=expanded;colorFamily=green;colorBackground=noColor:noColor;html=1;whiteSpace=wrap;metaEdit=1;strokeWidth=1;collapsible=0;recursiveResize=0;expand=0;fontFamily=IBM Plex Sans;fontColor=#000000;fontSize=14;image=;verticalAlign=middle;align=left;spacing=0;spacingLeft=12;spacingRight=16;spacingTop=0;spacingBottom=0;container=1;textOpacity=50;" parent="miscdiagram_31tVUSq2uvK_223dySapWgbaY" vertex="1">
                        <mxGeometry x="24" y="52" width="144" height="68" as="geometry"/>
                    </mxCell>
                </UserObject>
                <UserObject placeholders="1" label="DB (Inactive)" Icon-Name="cube" _id="userobject_31WvkrI6wx4" id="miscdiagram_31tVUSq2uvK_243dySapWDnF8">
                    <mxCell style="shape=mxgraph.ibm2mondrian.base;shapeType=lg;shapeLayout=expanded;colorFamily=green;colorBackground=noColor:noColor;html=1;whiteSpace=wrap;metaEdit=1;strokeWidth=1;collapsible=0;recursiveResize=0;expand=0;fontFamily=IBM Plex Sans;fontColor=#000000;fontSize=14;image=;verticalAlign=middle;align=left;spacing=0;spacingLeft=12;spacingRight=16;spacingTop=0;spacingBottom=0;container=1;labelBackgroundColor=none;textOpacity=50;" parent="miscdiagram_31tVUSq2uvK_223dySapWgbaY" vertex="1">
                        <mxGeometry x="192" y="52" width="144" height="68" as="geometry"/>
                    </mxCell>
                </UserObject>
                <UserObject placeholders="1" label="Node 2" Icon-Name="cloud" _id="userobject_31WyEjwNlAQ" id="miscdiagram_31tVUSq2uvK_253dySapWJfoZ">
                    <mxCell style="shape=mxgraph.ibm2mondrian.base;shapeType=lg;shapeLayout=expanded;colorFamily=blue;colorBackground=noColor:noColor;html=1;whiteSpace=wrap;metaEdit=1;strokeWidth=1;collapsible=0;recursiveResize=0;expand=0;fontFamily=IBM Plex Sans;fontColor=#000000;fontSize=14;image=;verticalAlign=top;align=left;spacing=0;spacingLeft=12;spacingRight=16;spacingTop=0;spacingBottom=0;container=1" parent="miscdiagram_31tVUSq2uvK_203dySapWXGeq" vertex="1">
                        <mxGeometry x="6" y="200" width="362" height="136" as="geometry"/>
                    </mxCell>
                </UserObject>
                <UserObject placeholders="1" label="BAW (Inactive)" Icon-Name="cube" _id="userobject_31WyEjwGBlt" id="miscdiagram_31tVUSq2uvK_263dySapWBAvD">
                    <mxCell style="shape=mxgraph.ibm2mondrian.base;shapeType=lg;shapeLayout=expanded;colorFamily=green;colorBackground=noColor:noColor;html=1;whiteSpace=wrap;metaEdit=1;strokeWidth=1;collapsible=0;recursiveResize=0;expand=0;fontFamily=IBM Plex Sans;fontColor=#000000;fontSize=14;image=;verticalAlign=middle;align=left;spacing=0;spacingLeft=12;spacingRight=16;spacingTop=0;spacingBottom=0;container=1;textOpacity=50;" parent="miscdiagram_31tVUSq2uvK_253dySapWJfoZ" vertex="1">
                        <mxGeometry x="24" y="52" width="144" height="68" as="geometry"/>
                    </mxCell>
                </UserObject>
                <UserObject placeholders="1" label="DB (Inactive)" Icon-Name="cube" _id="userobject_31WyEjwEd7i" id="miscdiagram_31tVUSq2uvK_273dySapWt8JQ">
                    <mxCell style="shape=mxgraph.ibm2mondrian.base;shapeType=lg;shapeLayout=expanded;colorFamily=green;colorBackground=noColor:noColor;html=1;whiteSpace=wrap;metaEdit=1;strokeWidth=1;collapsible=0;recursiveResize=0;expand=0;fontFamily=IBM Plex Sans;fontColor=#000000;fontSize=14;image=;verticalAlign=middle;align=left;spacing=0;spacingLeft=12;spacingRight=16;spacingTop=0;spacingBottom=0;container=1;textOpacity=50;" parent="miscdiagram_31tVUSq2uvK_253dySapWJfoZ" vertex="1">
                        <mxGeometry x="192" y="52" width="144" height="68" as="geometry"/>
                    </mxCell>
                </UserObject>
                <UserObject placeholders="1" label="Node 3" Icon-Name="cloud" _id="userobject_31WyInoNcXq" id="miscdiagram_31tVUSq2uvK_283dySapWe0d2">
                    <mxCell style="shape=mxgraph.ibm2mondrian.base;shapeType=lg;shapeLayout=expanded;colorFamily=blue;colorBackground=noColor:noColor;html=1;whiteSpace=wrap;metaEdit=1;strokeWidth=1;collapsible=0;recursiveResize=0;expand=0;fontFamily=IBM Plex Sans;fontColor=#000000;fontSize=14;image=;verticalAlign=top;align=left;spacing=0;spacingLeft=12;spacingRight=16;spacingTop=0;spacingBottom=0;container=1" parent="miscdiagram_31tVUSq2uvK_203dySapWXGeq" vertex="1">
                        <mxGeometry x="6" y="352" width="362" height="136" as="geometry"/>
                    </mxCell>
                </UserObject>
                <UserObject placeholders="1" label="BAW (Inactive)" Icon-Name="cube" _id="userobject_31WyInoa5iS" id="miscdiagram_31tVUSq2uvK_293dySapWlBih">
                    <mxCell style="shape=mxgraph.ibm2mondrian.base;shapeType=lg;shapeLayout=expanded;colorFamily=green;colorBackground=noColor:noColor;html=1;whiteSpace=wrap;metaEdit=1;strokeWidth=1;collapsible=0;recursiveResize=0;expand=0;fontFamily=IBM Plex Sans;fontColor=#000000;fontSize=14;image=;verticalAlign=middle;align=left;spacing=0;spacingLeft=12;spacingRight=16;spacingTop=0;spacingBottom=0;container=1;textOpacity=50;" parent="miscdiagram_31tVUSq2uvK_283dySapWe0d2" vertex="1">
                        <mxGeometry x="24" y="52" width="144" height="68" as="geometry"/>
                    </mxCell>
                </UserObject>
                <UserObject placeholders="1" label="DB (Inactive)" Icon-Name="cube" _id="userobject_31WyInoBDRH" id="miscdiagram_31tVUSq2uvK_303dySapWt8w0">
                    <mxCell style="shape=mxgraph.ibm2mondrian.base;shapeType=lg;shapeLayout=expanded;colorFamily=green;colorBackground=noColor:noColor;html=1;whiteSpace=wrap;metaEdit=1;strokeWidth=1;collapsible=0;recursiveResize=0;expand=0;fontFamily=IBM Plex Sans;fontColor=#000000;fontSize=14;image=;verticalAlign=middle;align=left;spacing=0;spacingLeft=12;spacingRight=16;spacingTop=0;spacingBottom=0;container=1;textOpacity=50;" parent="miscdiagram_31tVUSq2uvK_283dySapWe0d2" vertex="1">
                        <mxGeometry x="192" y="52" width="144" height="68" as="geometry"/>
                    </mxCell>
                </UserObject>
                <mxCell id="miscdiagram_31tVUSq2uvK_313dySapWm0cc" value="Persistent Volume" style="shape=cylinder;whiteSpace=wrap;html=1;boundedLbl=1;backgroundOutline=1;" parent="miscdiagram_31tVUSq2uvK_203dySapWXGeq" vertex="1">
                    <mxGeometry x="368" y="504" width="70" height="90" as="geometry"/>
                </mxCell>
                <mxCell id="miscdiagram_31tVUSq2uvK_323dySapW54om" value="" style="edgeStyle=elbowEdgeStyle;elbow=vertical;endArrow=classic;html=1;jumpStyle=arc;jumpSize=8;rounded=1;dashed=1;" parent="miscdiagram_31tVUSq2uvK_203dySapWXGeq" source="miscdiagram_31tVUSq2uvK_223dySapWgbaY" target="miscdiagram_31tVUSq2uvK_313dySapWm0cc" edge="1">
                    <mxGeometry width="50" height="50" relative="1" as="geometry">
                        <mxPoint x="346" y="130" as="sourcePoint"/>
                        <mxPoint x="396" y="80" as="targetPoint"/>
                        <Array as="points">
                            <mxPoint x="403" y="124"/>
                        </Array>
                    </mxGeometry>
                </mxCell>
                <mxCell id="miscdiagram_31tVUSq2uvK_333dySapWut7X" value="" style="edgeStyle=segmentEdgeStyle;endArrow=classic;html=1;jumpStyle=arc;jumpSize=8;rounded=1;exitX=1;exitY=0.559;exitPerimeter=0;entryX=0.5;entryY=0;dashed=1;" parent="miscdiagram_31tVUSq2uvK_203dySapWXGeq" source="miscdiagram_31tVUSq2uvK_253dySapWJfoZ" target="miscdiagram_31tVUSq2uvK_313dySapWm0cc" edge="1">
                    <mxGeometry width="50" height="50" relative="1" as="geometry">
                        <mxPoint x="226" y="570" as="sourcePoint"/>
                        <mxPoint x="276" y="520" as="targetPoint"/>
                        <Array as="points">
                            <mxPoint x="403" y="276"/>
                        </Array>
                    </mxGeometry>
                </mxCell>
                <mxCell id="miscdiagram_31tVUSq2uvK_343dySapWuth5" value="" style="edgeStyle=segmentEdgeStyle;endArrow=classic;html=1;jumpStyle=arc;jumpSize=8;rounded=1;entryX=0.5;entryY=0;exitX=1.003;exitY=0.515;exitPerimeter=0;dashed=1;" parent="miscdiagram_31tVUSq2uvK_203dySapWXGeq" source="miscdiagram_31tVUSq2uvK_283dySapWe0d2" target="miscdiagram_31tVUSq2uvK_313dySapWm0cc" edge="1">
                    <mxGeometry width="50" height="50" relative="1" as="geometry">
                        <mxPoint x="266" y="578" as="sourcePoint"/>
                        <mxPoint x="316" y="528" as="targetPoint"/>
                        <Array as="points">
                            <mxPoint x="403" y="422"/>
                        </Array>
                    </mxGeometry>
                </mxCell>
                <mxCell id="miscdiagram_31tVUSq2uvK_353dySapWLiqh" value="" style="shape=flexArrow;endArrow=classic;html=1;jumpStyle=arc;jumpSize=8;rounded=1;entryX=0;entryY=0.5;exitX=1;exitY=0.5;" parent="1" source="miscdiagram_31tVUSq2uvK_153dySapWJMnb" target="miscdiagram_31tVUSq2uvK_313dySapWm0cc" edge="1">
                    <mxGeometry width="50" height="50" relative="1" as="geometry">
                        <mxPoint x="536" y="738" as="sourcePoint"/>
                        <mxPoint x="586" y="688" as="targetPoint"/>
                    </mxGeometry>
                </mxCell>
                <mxCell id="miscdiagram_31tVUSq2uvK_363dySapW8QOi" value="Async Replication (IBM Spectrum Protect Plus)" style="text;html=1;resizable=0;points=[];align=center;verticalAlign=middle;labelBackgroundColor=#ffffff;" parent="miscdiagram_31tVUSq2uvK_353dySapWLiqh" vertex="1" connectable="0">
                    <mxGeometry x="-0.0989" y="-1" relative="1" as="geometry">
                        <mxPoint as="offset"/>
                    </mxGeometry>
                </mxCell>
                <mxCell id="miscdiagram_31tVUSq2uvK_373dySapW5gZn" value="" style="edgeStyle=segmentEdgeStyle;endArrow=classic;html=1;jumpStyle=arc;jumpSize=8;rounded=1;entryX=0.5;entryY=0.021;entryPerimeter=0;exitX=0;exitY=0.5;" parent="1" source="miscdiagram_31tVUSq2uvK_23dySapWm3wC" target="miscdiagram_31tVUSq2uvK_53dySapWHrej" edge="1">
                    <mxGeometry width="50" height="50" relative="1" as="geometry">
                        <mxPoint x="304" y="82" as="sourcePoint"/>
                        <mxPoint x="354" y="32" as="targetPoint"/>
                        <Array as="points">
                            <mxPoint x="244" y="46"/>
                        </Array>
                    </mxGeometry>
                </mxCell>
                <mxCell id="miscdiagram_31tVUSq2uvK_383dySapW8nxN" value="" style="edgeStyle=segmentEdgeStyle;endArrow=classic;html=1;jumpStyle=arc;jumpSize=8;rounded=1;dashed=1;entryX=0.5;entryY=0.021;entryPerimeter=0;exitX=1;exitY=0.5;" parent="1" source="miscdiagram_31tVUSq2uvK_23dySapWm3wC" target="miscdiagram_31tVUSq2uvK_213dySapWccJe" edge="1">
                    <mxGeometry width="50" height="50" relative="1" as="geometry">
                        <mxPoint x="744" y="82" as="sourcePoint"/>
                        <mxPoint x="794" y="32" as="targetPoint"/>
                        <Array as="points">
                            <mxPoint x="580" y="48"/>
                            <mxPoint x="840" y="48"/>
                        </Array>
                    </mxGeometry>
                </mxCell>
            </root>
        </mxGraphModel>
    </diagram>
</mxfile>